<?xml version="1.0" ?><!DOCTYPE svg  PUBLIC '-//W3C//DTD SVG 1.1//EN'  'http://www.w3.org/Graphics/SVG/1.1/DTD/svg11.dtd'><svg id="Capa_1" style="enable-background:new 0 0 56 56;" version="1.1" viewBox="0 0 56 56" xml:space="preserve" xmlns="http://www.w3.org/2000/svg" xmlns:xlink="http://www.w3.org/1999/xlink"><g><path d="M47.364,14H10.5v0.025C10.334,14.016,10.169,14,10,14c-4.694,0-8.5,3.806-8.5,8.5V44h17h12h12h12   V21.136C54.5,17.195,51.305,14,47.364,14z" style="fill:#2A55C5;"/><rect height="12" style="fill:#BE6E41;" width="8" x="24.5" y="44"/><rect height="2" style="fill:#6C4127;" width="3" x="29.5" y="46"/><rect height="2" style="fill:#6C4127;" width="3" x="29.5" y="49"/><rect height="2" style="fill:#6C4127;" width="3" x="29.5" y="52"/><path d="M18.5,44h-17V22.5c0-4.694,3.806-8.5,8.5-8.5h0c4.694,0,8.5,3.806,8.5,8.5V44z" style="fill:#167CD8;"/><path d="M30.5,30L30.5,30c-2.209,0-4-1.791-4-4v0c0-2.209,1.791-4,4-4h0c2.209,0,4,1.791,4,4v0   C34.5,28.209,32.709,30,30.5,30z" style="fill:#38454F;"/><polygon points="42.5,8 30.5,8 30.5,0 42.5,0 39.5,4  " style="fill:#DD352E;"/><rect height="26" style="fill:#38454F;" width="2" x="29.5"/></g><g/><g/><g/><g/><g/><g/><g/><g/><g/><g/><g/><g/><g/><g/><g/></svg>